<svg width="2462" height="2252" viewBox="0 0 2462 2252" fill="none" xmlns="http://www.w3.org/2000/svg">
<path d="M1974.13 10C1974 22.1333 1971.87 53.3333 1970 73.3333C1964 134.8 1950.67 163.733 1921.33 178.8C1899.2 190.267 1877.2 194.533 1819.73 198.667C1804.13 199.733 1787.07 200.667 1781.87 200.667C1776.53 200.667 1772.53 200.933 1772.8 201.2C1773.07 201.467 1784.8 202.4 1798.67 203.2C1884.67 208.533 1915.2 215.467 1936.53 234.933C1959.6 255.733 1968 288.133 1972.93 375.333C1974.8 409.067 1974.4 410.933 1978 356C1984.8 251.6 2002.27 223.867 2069.6 211.467C2089.07 207.867 2103.33 206.4 2142 204C2178.27 201.733 2183.6 201.067 2168.27 200.8C2155.07 200.667 2104.8 197.067 2090 195.2C2072.13 193.067 2047.47 187.467 2037.6 183.333C2024.8 178 2016.27 172.133 2008.13 163.2C1989.87 142.933 1982 111.467 1978 43.3333C1977.2 29.0667 1976 13.4667 1975.33 8.66667L1974.4 0L1974.13 10Z" fill="currentColor"/>
<path d="M2183.27 257.899C2179.13 298.565 2173.13 304.699 2135 307.632L2123 308.565L2139 310.165C2157.93 312.032 2166.33 314.699 2172.2 320.565C2177.53 325.899 2181 337.499 2182.07 352.832C2182.33 358.832 2183.13 363.499 2183.67 363.232C2184.2 362.965 2185 357.632 2185.4 351.632C2186.47 336.832 2189.53 327.499 2195.13 321.232C2201.13 314.565 2208.47 312.165 2228.33 310.165L2244.33 308.565L2231.67 307.632C2206.2 305.632 2196.6 301.499 2191.13 290.299C2187.93 283.365 2185.27 269.499 2184.6 254.565C2184.33 247.499 2184.33 247.632 2183.27 257.899Z" fill="currentColor"/>
<path d="M1738.3 52.6401C1737.36 54.9839 1736.66 60.3746 1736.66 64.359C1736.66 77.2497 1731.75 90.1405 1724.03 97.8749C1716.31 105.609 1701.1 110.297 1682.16 110.766C1674.67 111 1677.01 111.703 1691.51 114.047C1702.04 115.688 1714.2 118.969 1718.41 121.313C1728.47 127.172 1734.56 140.063 1736.19 158.813C1736.66 167.016 1738.06 173.11 1739 172.641C1739.94 172.173 1741.34 165.376 1742.04 157.641C1743.68 139.828 1749.76 127.172 1759.59 121.313C1763.8 118.969 1775.96 115.688 1786.49 114.047C1800.99 111.703 1803.33 111 1795.84 110.766C1758.42 109.828 1745.08 98.1093 1741.57 62.484C1740.64 53.1089 1739.47 49.8276 1738.3 52.6401Z" fill="currentColor"/>
<path d="M2145.3 524.64C2144.36 526.984 2143.66 532.375 2143.66 536.359C2143.66 549.25 2138.75 562.14 2131.03 569.875C2123.31 577.609 2108.1 582.297 2089.16 582.766C2081.67 583 2084.01 583.703 2098.51 586.047C2109.04 587.688 2121.2 590.969 2125.41 593.313C2135.47 599.172 2141.56 612.063 2143.19 630.813C2143.66 639.016 2145.06 645.11 2146 644.641C2146.94 644.172 2148.34 637.376 2149.04 629.641C2150.68 611.828 2156.76 599.172 2166.59 593.313C2170.8 590.969 2182.96 587.688 2193.49 586.047C2207.99 583.703 2210.33 583 2202.84 582.766C2165.42 581.828 2152.08 570.109 2148.57 534.484C2147.64 525.109 2146.47 521.828 2145.3 524.64Z" fill="currentColor"/>
<path fill-rule="evenodd" clip-rule="evenodd" d="M1254.35 1298.04C1283.38 1281.98 1312.63 1265.55 1342.05 1248.78C1380.13 1227.08 1417.57 1205.33 1454.27 1183.61C1472.78 1142.72 1476.64 1091.86 1463.87 1048.13C1449.87 999.467 1417.2 957.733 1373.6 932.133C1358.27 923.2 1340.93 916.266 1320.8 911.066C1307.33 907.466 1302.4 906.933 1281.87 906.4C1264.4 905.867 1255.2 906.266 1245.2 907.733C1162.8 920.933 1098.67 982.133 1081.07 1064.67C1077.47 1081.87 1077.73 1123.07 1081.73 1141.6C1090.13 1180.4 1108 1213.33 1136 1241.33C1168.32 1273.78 1208.77 1293.16 1254.35 1298.04ZM1303.33 1216.93C1287.33 1221.07 1260.67 1221.07 1245.33 1216.93C1194.8 1203.07 1159.87 1160.13 1157.07 1108.4C1155.33 1076 1165.87 1046.27 1187.73 1022.67C1204.4 1004.4 1222.67 993.733 1248 987.2C1259.87 984.266 1286.8 983.867 1299.73 986.667C1310 988.8 1326.27 995.466 1337.73 1002.27C1349.2 1008.93 1369.47 1030 1376.53 1042.4C1403.47 1090.13 1396.4 1147.07 1358.67 1185.07C1343.2 1200.67 1324.67 1211.33 1303.33 1216.93Z" fill="currentColor"/>
<path fill-rule="evenodd" clip-rule="evenodd" d="M60.1755 1803.27C125.95 1918.68 439.152 1873.04 844.607 1709.43C849.175 1707.31 857.257 1703.79 866.4 1700C880.4 1694.27 899.2 1686.27 908 1682.53C916.8 1678.67 924.8 1675.47 925.867 1675.47C925.921 1675.46 925.997 1675.47 926.094 1675.48C956.619 1662.38 987.583 1648.66 1018.93 1634.34C1018.81 1634.14 1018.81 1633.98 1018.93 1633.87C1019.47 1633.33 1037.74 1624.53 1059.33 1614.27C1080.93 1604.13 1101.73 1594.13 1105.33 1592.27C1109.07 1590.27 1112.93 1588.93 1114 1589.2C1114.1 1589.22 1114.28 1589.28 1114.53 1589.34C1216.88 1539.8 1322.47 1484.3 1429.32 1423.4C1620.89 1314.21 1792.97 1198.88 1942 1087.17L1944.4 1085.33L1955.6 1077.07C1961.73 1072.53 1978.53 1059.73 1992.8 1048.8L2018.67 1028.67L2021 1027.17C2071.93 986.965 2117.32 950.791 2160.68 912.114C2160.67 912.002 2160.67 911.919 2160.67 911.867C2160.67 910.933 2170.13 901.733 2181.6 891.2C2325.07 760 2419.73 641.333 2450 554.667C2474.8 484 2459.73 433.6 2406 406.667C2374.93 391.067 2335.73 384.133 2280.13 384.4C2191.87 384.933 2084.67 404.4 1948.53 444.667C1928.53 450.533 1911.73 455.733 1911.07 456.133C1910.4 456.663 1903.73 450.931 1896.27 443.733C1862.8 411.066 1814.93 373.333 1768.67 343.066C1684.8 288.133 1591.33 247.333 1495.33 223.466C1411.07 202.533 1333.6 194.266 1244.27 196.933C1076.4 201.733 912.799 254.533 771.333 349.333C669.6 417.466 585.2 502.399 517.2 605.333C444.533 715.466 398 836.666 378 968C372 1007.6 369.866 1034.8 369.066 1079.33C367.733 1154.8 373.599 1220.4 387.333 1286.13C389.466 1296.93 391.332 1306.27 391.333 1306.93C391.332 1307.6 386.132 1312.67 379.733 1318.13C332.666 1358 269.067 1418.13 227.2 1462.4C130.667 1564.27 72.4001 1650.93 54.6667 1718.67C47.0197 1747.85 47.2605 1773.49 55.0407 1794.87C54.8644 1793.76 54.7034 1792.64 54.5593 1791.51C56.1504 1795.57 58.0201 1799.49 60.1755 1803.27ZM1350.04 1262.8C836.645 1555.42 375.104 1740.71 233.603 1718.13C218.426 1716.31 208.566 1712.27 200.667 1705.2C182.667 1688.93 186.8 1660.8 213.333 1620.67C236.266 1586.13 280 1538.67 334.667 1489.2C369.998 1457.33 422.261 1413.74 423.466 1415.07C424 1415.6 427.733 1424.4 431.733 1434.67C458.666 1503.47 496.133 1572 540.4 1633.2C541.237 1634.36 542.025 1635.49 542.753 1636.57C589.945 1619.01 640.825 1598.55 694.776 1575.45C685.61 1564.23 671.097 1544.93 661.066 1530.8C619.466 1471.47 587.867 1408.8 564.4 1338.67C555.467 1311.87 555.067 1310.27 555.6 1300.67C556.267 1289.6 558.4 1284.53 565.6 1276.53C576.133 1264.8 591.066 1261.2 607.333 1266.27C613.999 1268.27 622 1274.53 626.266 1280.8C628.266 1283.73 633.2 1296.4 637.466 1309.07C661.733 1382.4 693.867 1444 740 1505.33C748.266 1516.27 760.267 1531.2 766.667 1538.4C767.882 1539.77 769.044 1541.1 770.129 1542.35C794.572 1531.36 819.537 1519.89 844.971 1507.97C835.77 1498.08 821.565 1481.69 811.733 1469.33C784.8 1435.6 762.8 1400.4 743.466 1360.4C724.667 1321.47 721.333 1312.53 721.466 1300.67C721.467 1290 723.733 1283.73 730.667 1275.6C741.733 1262.4 761.867 1258.53 777.466 1266.4C786.8 1271.07 794 1279.73 798.533 1291.6C804.133 1306.13 821.6 1342 831.334 1358.67C853.467 1397.2 880.533 1432.4 913.733 1465.87C915.957 1468.09 918.055 1470.23 919.929 1472.17C995.598 1435.38 1074.77 1394.98 1156.25 1351.42C1146.6 1346.68 1134.16 1339.79 1126 1334.4C1058.93 1290 1016.8 1226.13 1002.67 1147.33C999.2 1127.47 998.4 1086 1001.33 1065.73C1014.13 974.266 1070 896.532 1152 855.599C1184.4 839.466 1217.33 830.266 1255.33 826.799C1269.6 825.466 1302 827.333 1320.67 830.533C1376.53 839.999 1425.07 864.533 1465.87 904C1490 927.333 1506.67 950.266 1521.87 980.799C1540.93 1019.07 1550.13 1058.8 1550.13 1103.07C1550.13 1112.58 1549.95 1120.28 1549.57 1126.28C1628.42 1078.06 1703.19 1030.3 1772.87 983.828C1765.99 953.546 1751.21 912.611 1735.47 880C1674.93 755.2 1569.47 661.733 1438.67 617.066C1390.93 600.799 1343.33 592.266 1292.13 590.533C1265.2 589.599 1257.87 587.866 1249.2 580.266C1239.87 572.133 1236.13 563.6 1236.13 550.667C1236 542 1236.67 538.933 1239.2 534C1244.67 523.466 1253.6 515.999 1264.67 512.533C1269.6 511.066 1294.67 511.2 1315.33 512.667C1487.73 525.467 1642.8 609.733 1746.27 746.933C1786.27 799.866 1819.33 864.266 1838.8 927.066C1839.88 930.654 1840.88 934.117 1841.72 937.19C1865.06 921.119 1887.73 905.241 1909.67 889.592C1909.6 889.374 1909.53 889.155 1909.47 888.933C1892.93 837.867 1861.07 773.6 1828.93 726.667C1779.73 654.933 1718.4 593.867 1647.73 546.4C1575.07 497.467 1497.87 464.799 1412.67 446.799C1372.13 438.266 1340.53 434.533 1293.73 432.933C1266.27 432 1264.93 431.733 1257.73 428.266C1240.4 419.733 1231.73 400.266 1237.2 381.733C1240.53 370.266 1251.47 359.067 1263.33 355.2C1268.93 353.333 1326.27 355.066 1353.47 357.866C1446.27 367.732 1531.2 393.066 1614.67 435.866C1686.4 472.532 1743.73 514.4 1800.8 571.2C1843.73 614.133 1870.27 646.533 1901.07 693.333C1930.85 738.803 1960.76 797.797 1976 841.361C2023.41 806.174 2066.66 772.424 2105.19 740.558C2104.22 738.363 2103.13 735.905 2102 733.333C2072.93 667.199 2032.13 600.399 1981.47 535.599C1979.47 533.066 1979.33 532.133 1980.67 531.333C1983.87 529.331 2065.87 502.399 2088 496C2139.2 481.2 2184.67 471.333 2222.67 466.933C2235.2 465.333 2270.93 466.133 2280.4 468.133C2303.73 472.933 2314.27 481.466 2318 498.799C2319.2 504.133 2319.07 507.733 2317.33 516.133C2314.79 528.554 2308.27 543.072 2297.92 559.518C2211.15 703.123 1833.19 987.426 1350.04 1262.8Z" fill="currentColor"/>
<path d="M1014.4 1970.67C1119.33 2001.47 1226.27 2013.73 1332 2006.67C1482.27 1996.67 1619.73 1953.07 1748 1874.67C1894.53 1785.07 2016.27 1650.67 2090.53 1496.4C2147.73 1377.87 2177.47 1255.2 2180.27 1128C2181.62 1065.08 2176.74 1000.24 2166.68 943.914C2122.4 983.727 2073.94 1024.52 2021.72 1065.87C2021.86 1068.53 2022 1071.25 2022.13 1074L2023.73 1109.33L2020 1117.73C2013.2 1132.8 2000.4 1141.2 1984 1141.2C1968.91 1141.2 1957 1134.21 1949.94 1121.28C1801.78 1232.82 1628.25 1346.96 1437.77 1455.53C1343.95 1509 1251.07 1558.24 1160.47 1602.89C1160.87 1603.06 1161.2 1603.2 1161.47 1603.33C1185.47 1614.27 1191.6 1645.6 1173.6 1665.6C1160.93 1679.47 1147.07 1680.8 1113.33 1671.07C1097.13 1666.36 1075.99 1658.96 1057.82 1651.98C1025.65 1666.89 993.844 1681.18 962.471 1694.83C1021.61 1726.04 1085.71 1748.57 1150.13 1760.67C1173.2 1764.93 1179.07 1767.33 1186.93 1775.6C1193.73 1782.67 1197.2 1791.87 1197.2 1802.67C1197.07 1817.33 1190.4 1829.2 1178.13 1835.73C1166.93 1841.87 1161.2 1842.4 1142.13 1839.2C1050.83 1823.83 953.87 1785.59 871.804 1732.98C810.908 1757.72 751.995 1779.83 695.581 1799.17C787.54 1876.02 901.091 1937.17 1014.4 1970.67Z" fill="currentColor"/>
<path d="M1260.67 1065.6C1251.47 1068.93 1240.53 1080.67 1237.47 1090.53C1231.6 1109.2 1240.13 1128.93 1257.73 1137.6C1272.4 1144.8 1291.33 1141.6 1302.4 1130.27C1310.8 1121.6 1313.33 1114.93 1313.33 1102C1313.33 1092.93 1312.67 1089.6 1310.27 1085.07C1300.8 1067.07 1279.87 1058.93 1260.67 1065.6Z" fill="currentColor"/>
<path d="M1809.27 264.929C1808.87 265.996 1807.53 269.996 1806.47 273.596C1803.13 283.996 1798.6 289.596 1790.47 293.462C1786.47 295.329 1780.87 297.462 1778.07 297.996L1773 299.062L1782.6 301.996C1794.73 305.729 1801.4 311.729 1805.53 322.662C1807 326.929 1808.33 331.196 1808.33 332.262C1808.33 336.529 1810.6 333.862 1812.2 327.729C1815.8 313.329 1822.33 307.062 1839 301.596L1846.33 299.196L1840.33 297.462C1823.13 292.929 1817.67 287.596 1812.2 270.262C1810.87 266.129 1809.67 263.862 1809.27 264.929Z" fill="currentColor"/>
<path d="M2048.27 77.9289C2047.87 78.9955 2046.53 82.9955 2045.47 86.5955C2042.13 96.9955 2037.6 102.596 2029.47 106.462C2025.47 108.329 2019.87 110.462 2017.07 110.996L2012 112.062L2021.6 114.996C2033.73 118.729 2040.4 124.729 2044.53 135.662C2046 139.929 2047.33 144.196 2047.33 145.262C2047.33 149.529 2049.6 146.862 2051.2 140.729C2054.8 126.329 2061.33 120.062 2078 114.596L2085.33 112.196L2079.33 110.462C2062.13 105.929 2056.67 100.596 2051.2 83.2622C2049.87 79.1289 2048.67 76.8622 2048.27 77.9289Z" fill="currentColor"/>
<path d="M586.994 1874C581.394 1969.73 571.794 2001.33 541.927 2021.2C521.794 2034.67 492.194 2041.07 429.394 2045.33C418.727 2046 405.66 2046.67 400.194 2046.67C382.327 2046.67 391.394 2048.27 419.66 2050.13C473.527 2053.47 501.127 2057.47 521.794 2064.67C542.994 2072.13 557.794 2084.8 566.594 2102.93C578.327 2127.2 582.46 2153.6 587.66 2235.33L588.594 2251.33L589.527 2234C593.794 2157.87 598.594 2128.27 610.327 2104C614.86 2094.53 618.327 2089.47 624.06 2084C646.194 2062.53 674.194 2055.47 757.794 2050.13C786.46 2048.27 795.127 2046.67 776.594 2046.67C764.194 2046.67 717.527 2043.33 701.527 2041.33C649.127 2034.67 624.327 2021.2 610.194 1991.6C598.594 1967.6 594.86 1943.6 589.66 1860.67L588.727 1844.67L586.994 1874Z" fill="currentColor"/>
<path d="M884.862 1990.63C882.938 2017.54 877.486 2029.24 864.177 2035.81C854.717 2040.29 839.804 2043.17 825.372 2043.17C811.422 2043.17 815.27 2044.62 834.192 2046.38C873.317 2050.06 882.297 2059.67 884.862 2100.69L885.985 2117.67L888.069 2099.24C891.437 2069.61 895.926 2059.67 909.396 2052.79C916.451 2049.26 929.6 2046.38 940.343 2046.22C956.699 2045.9 957.34 2043.82 941.466 2042.85C902.34 2040.45 892.238 2030.84 888.711 1992.23C888.069 1984.06 887.107 1977.01 886.626 1976.69C886.145 1976.21 885.343 1982.46 884.862 1990.63Z" fill="currentColor"/>
<path d="M67.8623 1408.63C65.9381 1435.54 60.4862 1447.24 47.1772 1453.81C37.7165 1458.29 22.804 1461.17 8.37252 1461.17C-5.57792 1461.17 -1.72952 1462.62 17.1918 1464.38C56.3171 1468.06 65.2967 1477.68 67.8623 1518.69L68.9848 1535.67L71.0693 1517.24C74.4367 1487.61 78.9265 1477.68 92.3958 1470.79C99.4512 1467.26 112.6 1464.38 123.343 1464.22C139.699 1463.9 140.34 1461.82 124.466 1460.85C85.3405 1458.45 75.2384 1448.84 71.7107 1410.23C71.0693 1402.06 70.1072 1395.01 69.6262 1394.69C69.1451 1394.21 68.3434 1400.46 67.8623 1408.63Z" fill="currentColor"/>
<path d="M390.862 1531.63C388.938 1558.54 383.486 1570.24 370.177 1576.81C360.717 1581.29 345.804 1584.17 331.373 1584.17C317.422 1584.17 321.27 1585.62 340.192 1587.38C379.317 1591.06 388.297 1600.68 390.862 1641.69L391.985 1658.67L394.069 1640.24C397.437 1610.61 401.926 1600.68 415.396 1593.79C422.451 1590.26 435.6 1587.38 446.343 1587.22C462.699 1586.9 463.34 1584.82 447.466 1583.85C408.34 1581.45 398.238 1571.84 394.711 1533.23C394.069 1525.06 393.107 1518.01 392.626 1517.69C392.145 1517.21 391.343 1523.46 390.862 1531.63Z" fill="currentColor"/>
<path d="M322.665 1953.93C322.132 1977.13 313.732 1985.27 290.132 1985.8C283.865 1985.93 284.265 1986.07 294.532 1987.67C315.999 1990.73 320.799 1995.8 322.265 2016.87L323.065 2027.67L324.799 2015.13C327.465 1994.87 331.465 1990.87 351.332 1987.8C361.199 1986.33 362.132 1985.93 356.932 1985.8C346.265 1985.53 337.332 1983 332.532 1978.73C327.999 1974.87 327.599 1973.67 323.999 1954.33L322.799 1947.67L322.665 1953.93Z" fill="currentColor"/>
<path d="M499.854 1869.5C498.654 1876.3 493.587 1885.9 488.921 1890.3C486.921 1892.3 480.654 1895.37 475.187 1897.23C469.721 1899.1 466.121 1900.83 467.187 1901.23C468.254 1901.5 472.387 1902.83 476.387 1904.16C487.721 1907.63 494.521 1914.83 498.387 1927.1L501.454 1937.1L503.854 1929.9C509.321 1913.36 515.587 1906.83 529.987 1903.23C537.454 1901.23 538.254 1900.03 532.521 1898.83C530.254 1898.43 525.187 1896.56 521.054 1894.56C512.654 1890.56 507.321 1883.76 504.521 1873.1C502.254 1864.43 501.054 1863.5 499.854 1869.5Z" fill="currentColor"/>
<path d="M204.854 1327.5C203.654 1334.3 198.587 1343.9 193.921 1348.3C191.921 1350.3 185.654 1353.37 180.187 1355.23C174.721 1357.1 171.121 1358.83 172.187 1359.23C173.254 1359.5 177.387 1360.83 181.387 1362.17C192.721 1365.63 199.521 1372.83 203.387 1385.1L206.454 1395.1L208.854 1387.9C214.321 1371.36 220.587 1364.83 234.987 1361.23C242.454 1359.23 243.254 1358.03 237.521 1356.83C235.254 1356.43 230.187 1354.57 226.054 1352.57C217.654 1348.57 212.321 1341.77 209.521 1331.1C207.254 1322.43 206.054 1321.5 204.854 1327.5Z" fill="currentColor"/>
</svg>
