<svg width="1400" height="1050" viewBox="0 0 1400 1050" fill="none" xmlns="http://www.w3.org/2000/svg">
<g clip-path="url(#clip0_8_2)">
<path d="M1400 0H0V1050H1400V0Z" fill="#F5F5F5"/>
<path d="M583.333 968.333C828.18 968.333 1026.67 769.846 1026.67 525C1026.67 280.154 828.18 81.6665 583.333 81.6665C338.487 81.6665 140 280.154 140 525C140 769.846 338.487 968.333 583.333 968.333Z" fill="#2C2C2E"/>
<path d="M583.334 542.5C592.999 542.5 600.834 534.665 600.834 525C600.834 515.335 592.999 507.5 583.334 507.5C573.669 507.5 565.834 515.335 565.834 525C565.834 534.665 573.669 542.5 583.334 542.5Z" fill="#949494"/>
<path d="M1178.33 338.333C1242.77 338.333 1295 286.1 1295 221.667C1295 157.233 1242.77 105 1178.33 105C1113.9 105 1061.67 157.233 1061.67 221.667C1061.67 286.1 1113.9 338.333 1178.33 338.333Z" fill="#2C2C2E"/>
<path d="M1200.67 668.348C1200.67 668.348 1163.11 692.547 1161.18 746.363C1159.53 792.495 1159.46 794.129 1076.34 905.643C1067.84 905.062 1059.14 908.028 1052.67 914.566C1052.48 914.734 1001.36 967.601 1001.36 967.601C997.804 971.185 997.774 976.959 1001.28 980.602L1030.57 1011C1034.21 1014.75 1040.21 1014.81 1043.88 1011.1C1043.88 1011.1 1057.98 996.473 1071.49 982.455L1076.34 987.084L1103.53 1013.06C1106.32 1015.73 1110.75 1015.63 1113.42 1012.83C1116.09 1010.04 1115.99 1005.61 1113.2 1002.94L1096.6 987.082L1081.21 972.372C1089.46 963.813 1095.82 957.213 1095.88 957.152C1102.38 950.549 1105.21 941.726 1104.45 933.17C1194.39 812.518 1198.04 806.39 1200.14 747.758C1202.1 692.995 1200.85 681.692 1200.67 668.348Z" fill="#DBDBDB"/>
<path d="M1113.2 943.787L1074.28 906.603L1064.6 916.724L1103.53 953.909C1106.32 956.58 1110.75 956.478 1113.42 953.682C1116.09 950.889 1115.99 946.458 1113.2 943.787Z" fill="#949494"/>
<path d="M1197.83 262.138L1158.85 262.652C1158.89 265.909 1163.11 633.397 1161.18 687.211C1159.46 735.021 1159.46 735.021 1066.96 859.075C1063.9 863.177 1064.75 868.98 1068.85 872.039L1085.26 884.268C1089.36 887.324 1095.16 886.477 1098.21 882.378C1194.24 753.594 1197.99 748.568 1200.14 688.606C1202.1 633.845 1198.01 275.483 1197.83 262.138Z" fill="#949494"/>
<path d="M1198.72 228.697C1224.47 156.006 1249.96 83.2041 1259.57 55.7431C1261.69 49.6578 1258.48 43.0031 1252.4 40.8775L1237.62 35.7185C1231.54 33.5951 1224.89 36.7918 1222.77 42.8701C1213.3 69.9298 1187.79 142.751 1162.07 215.357L1198.72 228.697Z" fill="#949494"/>
<path d="M1265.22 62.0408C1265.22 62.0408 1231.49 49.2051 1215.72 43.1991C1209.58 40.8611 1202.74 44.0578 1200.57 50.2574L1175.19 122.663C1173.04 128.627 1176.05 135.216 1181.96 137.503L1231.39 156.611C1237.5 158.972 1244.35 155.845 1246.57 149.685L1272.11 76.7594C1274.17 70.8001 1271.12 64.2785 1265.22 62.0408Z" fill="#535357"/>
<path d="M1195.94 63.4756L1184.68 95.5916L1255.88 123.113L1267.26 90.6216C1246.52 82.7326 1218.92 72.2256 1195.94 63.4756Z" fill="#C4C4C4"/>
<path d="M1178.33 280C1210.55 280 1236.67 253.883 1236.67 221.666C1236.67 189.45 1210.55 163.333 1178.33 163.333C1146.12 163.333 1120 189.45 1120 221.666C1120 253.883 1146.12 280 1178.33 280Z" fill="#C4C4C4"/>
<path d="M1140.66 177.146C1132.7 183.887 1126.58 192.719 1123.14 202.799L1163.71 243.742L1163.72 243.73C1168.3 248.173 1174.88 250.56 1181.99 249.356C1190.62 247.895 1197.72 240.972 1199.02 232.325C1199.65 228.144 1199.33 223.657 1199.33 223.657L1140.66 177.146Z" fill="#949494"/>
<path d="M1193.4 207.055L1193.41 207.043L1133.32 146.409C1128.77 141.852 1121.38 141.852 1116.82 146.409L1103.62 159.609C1099.07 164.166 1099.07 171.551 1103.62 176.108L1163.71 236.742L1163.72 236.73C1168.3 241.173 1174.88 243.56 1181.99 242.356C1190.62 240.895 1197.56 233.947 1199.02 225.325C1200.23 218.213 1197.84 211.633 1193.4 207.055Z" fill="#F5F5F5"/>
<path d="M1241.83 296.048C1251.49 296.048 1259.33 288.213 1259.33 278.548C1259.33 268.883 1251.49 261.048 1241.83 261.048C1232.16 261.048 1224.33 268.883 1224.33 278.548C1224.33 288.213 1232.16 296.048 1241.83 296.048Z" fill="#C4C4C4"/>
<path d="M1095.88 898.004C1095.72 898.175 1043.88 951.946 1043.88 951.946C1040.21 955.659 1034.21 955.603 1030.57 951.851L1001.28 921.452C997.774 917.807 997.804 912.035 1001.36 908.451C1001.36 908.451 1052.48 855.584 1052.67 855.416C1064.44 843.521 1083.6 843.374 1095.52 855.101C1107.46 866.854 1107.63 886.06 1095.88 898.004Z" fill="#535357"/>
<path d="M116.667 1003.33C148.884 1003.33 175.001 977.216 175.001 945C175.001 912.783 148.884 886.667 116.667 886.667C84.4507 886.667 58.334 912.783 58.334 945C58.334 977.216 84.4507 1003.33 116.667 1003.33Z" fill="#DBDBDB"/>
<path d="M116.667 991.667C148.884 991.667 175.001 965.55 175.001 933.333C175.001 901.117 148.884 875 116.667 875C84.4507 875 58.334 901.117 58.334 933.333C58.334 965.55 84.4507 991.667 116.667 991.667Z" fill="#949494"/>
<path d="M116.667 980C142.44 980 163.333 959.106 163.333 933.333C163.333 907.56 142.44 886.667 116.667 886.667C90.8934 886.667 70 907.56 70 933.333C70 959.106 90.8934 980 116.667 980Z" fill="#C4C4C4"/>
<path d="M116.667 922.056C123.11 922.056 128.333 916.833 128.333 910.39C128.333 903.946 123.11 898.723 116.667 898.723C110.223 898.723 105 903.946 105 910.39C105 916.833 110.223 922.056 116.667 922.056Z" fill="#949494"/>
<path d="M150.684 163.333H80.6842C74.2419 163.333 69.0176 158.109 69.0176 151.667V81.6667C69.0176 75.2243 74.2419 70 80.6842 70H150.684C157.127 70 162.351 75.2243 162.351 81.6667V151.667C162.351 158.109 157.129 163.333 150.684 163.333Z" fill="#DBDBDB"/>
<path d="M150.684 151.667H80.6842C74.2419 151.667 69.0176 146.443 69.0176 140V70.0002C69.0176 63.5578 74.2419 58.3335 80.6842 58.3335H150.684C157.127 58.3335 162.351 63.5578 162.351 70.0002V140C162.351 146.443 157.129 151.667 150.684 151.667Z" fill="#949494"/>
<path d="M139.017 140H92.3503C85.9079 140 80.6836 134.776 80.6836 128.333V81.6667C80.6836 75.2243 85.9079 70 92.3503 70H139.017C145.459 70 150.684 75.2243 150.684 81.6667V128.333C150.684 134.776 145.462 140 139.017 140Z" fill="#C4C4C4"/>
<path d="M1318.4 991.667H1248.4C1241.96 991.667 1236.74 986.442 1236.74 980V536.667C1236.74 530.224 1241.96 525 1248.4 525H1318.4C1324.85 525 1330.07 530.224 1330.07 536.667V980C1330.07 986.442 1324.85 991.667 1318.4 991.667Z" fill="#949494"/>
<path d="M1318.4 525H1248.4C1241.96 525 1236.74 530.224 1236.74 536.667V543.667C1236.74 537.224 1241.96 532 1248.4 532H1318.4C1324.85 532 1330.07 537.224 1330.07 543.667V536.667C1330.07 530.224 1324.85 525 1318.4 525Z" fill="#80807F"/>
<path d="M1306.74 723.333H1260.07C1253.63 723.333 1248.4 718.109 1248.4 711.667V665C1248.4 658.558 1253.63 653.333 1260.07 653.333H1306.74C1313.18 653.333 1318.4 658.558 1318.4 665V711.667C1318.4 718.109 1313.18 723.333 1306.74 723.333Z" fill="#80807F"/>
<path d="M1292.74 571.667H1274.07V945H1292.74V571.667Z" fill="#2C2C2E"/>
<path d="M1306.74 700H1260.07C1253.63 700 1248.4 694.776 1248.4 688.333V641.667C1248.4 635.224 1253.63 630 1260.07 630H1306.74C1313.18 630 1318.4 635.224 1318.4 641.667V688.333C1318.4 694.776 1313.18 700 1306.74 700Z" fill="#F5F5F5"/>
<path d="M1295.07 688.333H1271.74C1265.29 688.333 1260.07 683.109 1260.07 676.667V653.333C1260.07 646.891 1265.29 641.667 1271.74 641.667H1295.07C1301.51 641.667 1306.74 646.891 1306.74 653.333V676.667C1306.74 683.109 1301.52 688.333 1295.07 688.333Z" fill="#DBDBDB"/>
<path d="M387 551H316V930H387V551Z" fill="#B9E4ED"/>
<path d="M850 551H778V922H850V551Z" fill="#B9E4ED"/>
<path d="M491.818 630.777C487.221 639.124 484.02 648.438 485.274 657.684C486.519 666.931 492.988 676.005 502.834 678.96C519.014 683.82 534.518 671.573 549.596 664.397C569.462 654.932 594.151 654.062 614.779 662.094C630.75 668.311 647.374 679.778 663.58 674.078C672.021 671.116 677.922 663.736 679.995 655.817C682.067 647.898 680.73 639.529 677.922 631.789C650.976 557.561 526.11 568.428 491.818 630.777Z" fill="white"/>
<path d="M257.246 470.654C253.125 523.704 301.359 569.982 360.49 569.975C419.622 569.967 467.847 523.681 463.701 470.624C463.083 462.742 456.647 456 447.404 456C439.062 456 430.487 462.704 431.106 470.624C434.014 507.828 402.873 540.72 360.49 540.727C318.116 540.735 286.95 507.865 289.841 470.654C290.452 462.764 281.91 456.03 273.544 456.03C264.216 456.022 257.864 462.742 257.246 470.654Z" fill="white"/>
<path d="M875.575 470.654C878.467 507.865 847.301 540.735 804.927 540.727C762.552 540.72 731.403 507.828 734.311 470.624C734.93 462.734 726.379 456 718.013 456C708.677 456 702.334 462.712 701.716 470.624C697.57 523.674 745.795 569.96 804.927 569.975C864.058 569.982 912.3 523.711 908.171 470.654C907.561 462.772 901.117 456.03 891.873 456.03C883.524 456.022 874.957 462.727 875.575 470.654Z" fill="white"/>
<path d="M583.334 35C853.954 35 1073.33 254.38 1073.33 525C1073.33 795.62 853.954 1015 583.334 1015C312.714 1015 93.334 795.62 93.334 525C93.334 254.38 312.714 35 583.334 35ZM583.333 81.667C338.487 81.6672 140 280.154 140 525C140 769.846 338.487 968.333 583.333 968.333C828.179 968.333 1026.67 769.846 1026.67 525C1026.67 280.154 828.179 81.667 583.333 81.667Z" fill="#949494"/>
<path d="M1026.64 529.667C1026.66 531.22 1026.67 532.776 1026.67 534.333C1026.67 779.18 828.179 977.667 583.333 977.667C338.487 977.666 140 779.18 140 534.333C140 532.776 140.009 531.22 140.025 529.667C142.528 772.363 340.044 968.333 583.333 968.333C826.622 968.333 1024.14 772.363 1026.64 529.667Z" fill="#80807F"/>
</g>
<defs>
<clipPath id="clip0_8_2">
<rect width="1400" height="1050" rx="24" fill="white"/>
</clipPath>
</defs>
</svg>
